<?xml version="1.0" encoding="utf-8"?>
<!-- Generator: Adobe Illustrator 25.4.1, SVG Export Plug-In . SVG Version: 6.00 Build 0)  -->
<svg version="1.1" id="Layer_1" xmlns="http://www.w3.org/2000/svg" xmlns:xlink="http://www.w3.org/1999/xlink" x="0px" y="0px"
	 viewBox="0 0 380.3 164.1" style="enable-background:new 0 0 380.3 164.1;" xml:space="preserve">
<style type="text/css">
	.st0{fill:#26A9E0;}
	.st1{font-family:'BerlinSansFB-Reg';}
	.st2{font-size:18.5316px;}
	.st3{fill:url(#SVGID_1_);}
	.st4{fill:url(#SVGID_00000034794760983634528180000002120222933119296921_);}
	.st5{fill:url(#SVGID_00000137116995192620985720000014953296155509490330_);}
	.st6{fill:url(#SVGID_00000008838390956445004600000010749579242698675587_);}
	.st7{fill:url(#SVGID_00000072275278581397426710000011212520875278302627_);}
	.st8{fill:url(#SVGID_00000041974708880978556070000010806950854303338669_);}
	.st9{fill:url(#SVGID_00000023278472934630668340000010776744208371913128_);}
	.st10{fill:url(#SVGID_00000041277568714974095170000010717020073778716348_);}
	.st11{fill:url(#SVGID_00000142882007385523410550000004019847183525126800_);}
</style>
<text transform="matrix(1 0 0 1 150.6856 108.5854)" class="st0 st1 st2">Home Tutor</text>
<g>
	<path class="st0" d="M373.2-34.5c0,0.1-0.1,0.2-0.3,0.2c-0.1,0-0.3,0-0.5,0c-0.2,0-0.4,0-0.5,0c-0.1,0-0.3,0-0.5,0s-0.4,0-0.5,0
		c-0.1,0-0.2-0.1-0.2-0.2c0-0.5,0-1.4,0-2.4s0-1.9,0-2.4c0-0.2-0.1-0.4-0.2-0.4c-0.2,0-1.2-0.1-3.1-0.1c-1.9,0-2.9,0-3.1,0.1
		c-0.1,0-0.2,0.2-0.2,0.4c0,0.5,0,1.3,0,2.4c0,1.1,0,1.9,0,2.4c0,0.2-0.1,0.3-0.2,0.3c-0.1,0-0.3,0-0.5,0s-0.4,0-0.5,0
		c-0.1,0-0.3,0-0.5,0s-0.4,0-0.5,0c-0.2,0-0.2-0.1-0.2-0.2c0-0.7,0-1.7,0.1-3s0.1-2.3,0.1-3c0-0.7,0-1.8-0.1-3.2
		c-0.1-1.4-0.1-2.5-0.1-3.2c0-0.1,0.1-0.2,0.2-0.2c0.1,0,0.3,0,0.5,0c0.2,0,0.4,0,0.5,0c0.1,0,0.3,0,0.5,0c0.2,0,0.4,0,0.5,0
		c0.1,0,0.2,0.1,0.2,0.2c0,0.5,0,1.3-0.1,2.3c0,1-0.1,1.8-0.1,2.3c0,0.2,0.1,0.3,0.2,0.3c0.2,0.1,1.2,0.1,3.2,0.1c1.9,0,3,0,3.2-0.1
		c0.1,0,0.2-0.2,0.2-0.4c0-0.5,0-1.3,0-2.3c0-1,0-1.8,0-2.3c0-0.1,0.1-0.2,0.2-0.2c0.1,0,0.3,0,0.5,0c0.2,0,0.4,0,0.5,0
		c0.1,0,0.3,0,0.5,0s0.4,0,0.5,0c0.2,0,0.2,0.1,0.2,0.2c0,0.7,0,1.8-0.1,3.2c-0.1,1.4-0.1,2.5-0.1,3.2c0,0.7,0,1.7,0.1,3
		S373.2-35.2,373.2-34.5z"/>
	<path class="st0" d="M383.2-38.7c0,1.3-0.4,2.3-1.2,3.2c-0.8,0.9-1.9,1.4-3.1,1.4c-1.3,0-2.3-0.5-3.1-1.4c-0.8-0.9-1.2-2-1.2-3.2
		s0.4-2.3,1.2-3.2c0.9-0.9,1.9-1.4,3.1-1.4c1.2,0,2.3,0.5,3.1,1.4C382.8-41,383.2-40,383.2-38.7z M381.3-38.7c0-0.7-0.2-1.4-0.7-1.9
		c-0.5-0.5-1.1-0.8-1.8-0.8c-0.7,0-1.3,0.3-1.8,0.8c-0.5,0.5-0.7,1.2-0.7,1.9c0,0.7,0.2,1.4,0.7,1.9c0.5,0.6,1.1,0.8,1.8,0.8
		c0.7,0,1.3-0.3,1.8-0.8C381.1-37.3,381.3-38,381.3-38.7z"/>
	<path class="st0" d="M398.3-34.6c0,0.2-0.1,0.4-0.2,0.4c-0.1,0-0.2,0-0.4,0c-0.2,0-0.3,0-0.4,0c-0.1,0-0.3,0-0.5,0s-0.4,0-0.5,0
		c-0.1,0-0.2-0.1-0.2-0.4c0-0.3,0-0.7,0-1.2c0-0.6,0-1,0-1.2c0-1.5,0-2.4,0-2.6c0-0.6-0.2-1-0.4-1.3c-0.2-0.3-0.7-0.4-1.3-0.4
		c-0.4,0-0.8,0.2-1.3,0.5c-0.5,0.4-0.8,0.8-0.8,1.1c0,0.5,0,1.3,0,2.6c0,0.3,0,0.7,0,1.3c0,0.6,0,1,0,1.3c0,0.2-0.1,0.2-0.2,0.2
		s-0.3,0-0.5,0c-0.2,0-0.4,0-0.5,0c-0.1,0-0.2,0-0.4,0c-0.2,0-0.3,0-0.4,0c-0.1,0-0.2-0.1-0.2-0.3c0-0.3,0-0.7,0-1.3
		c0-0.6,0-1,0-1.3v-2.2c0-0.7-0.1-1.2-0.2-1.5c-0.2-0.4-0.7-0.6-1.3-0.6c-0.4,0-0.8,0.2-1.4,0.5c-0.6,0.4-0.9,0.7-0.9,1.1v2.6
		c0,0.3,0,0.8,0,1.3c0,0.6,0,1,0,1.3c0,0.2-0.1,0.3-0.2,0.3h-1.7c-0.1,0-0.2-0.1-0.2-0.2c0-0.5,0-1.2,0-2.2c0-1,0-1.7,0-2.2
		c0-1.1-0.1-2.2-0.4-3.3c0-0.1,0-0.1,0-0.2c0-0.1,0-0.1,0.1-0.1c0.2,0,0.5-0.1,1-0.1c0.2-0.1,0.5-0.1,0.9-0.2l0.1,0
		c0.1,0,0.1,0.2,0.2,0.6c0.1,0.4,0.1,0.6,0.2,0.6l0.5-0.4c0.4-0.3,0.7-0.6,1.1-0.7c0.5-0.3,1-0.4,1.5-0.4c1.4,0,2.3,0.6,2.7,1.7
		c0.4-0.5,0.8-0.9,1.4-1.2c0.6-0.3,1.2-0.5,1.8-0.5c1.1,0,1.9,0.3,2.3,1c0.3,0.5,0.5,1.2,0.5,2.3c0,0.2,0,0.5,0,0.9
		c0,0.4,0,0.7,0,0.9c0,0.4,0,1,0,1.7C398.3-35.6,398.3-35,398.3-34.6z"/>
	<path class="st0" d="M407.7-39.2c0,0.4-0.2,0.7-0.6,0.9c-0.3,0.1-2.1,0.3-5.6,0.5c0.1,0.5,0.4,1,0.9,1.4c0.5,0.4,1,0.5,1.6,0.5
		c1,0,1.8-0.3,2.6-0.9c0.1-0.1,0.2-0.2,0.3-0.2c0,0,0.1,0,0.1,0s0.1,0.2,0.3,0.6c0.2,0.4,0.3,0.6,0.3,0.7c0,0,0,0.1-0.1,0.2
		c-0.9,0.9-2,1.4-3.4,1.4c-1.4,0-2.5-0.4-3.3-1.3c-0.8-0.8-1.2-2-1.2-3.3c0-1.2,0.4-2.3,1.2-3.2c0.8-1,1.9-1.4,3.1-1.4
		c1.1,0,2.1,0.4,2.8,1.2C407.3-41.3,407.7-40.3,407.7-39.2z M405.6-39.7c0-0.5-0.2-0.9-0.6-1.3s-0.8-0.6-1.3-0.6
		c-0.6,0-1,0.2-1.5,0.7c-0.4,0.4-0.6,0.9-0.6,1.5c0,0.1,0.1,0.2,0.3,0.2c0.9,0,2-0.1,3.2-0.3C405.4-39.6,405.6-39.6,405.6-39.7z"/>
	<path class="st0" d="M422.1-45.3c0,0.2-0.1,0.2-0.2,0.2c-0.2,0-1.2,0-3.2-0.1c-0.1,1.8-0.1,3.3-0.1,4.4c0,0.7,0,1.7,0.1,3.1
		c0.1,1.4,0.1,2.4,0.1,3.1c0,0.1-0.1,0.2-0.3,0.2c-0.1,0-0.3,0-0.5,0c-0.2,0-0.4,0-0.5,0c-0.1,0-0.3,0-0.5,0c-0.2,0-0.4,0-0.5,0
		c-0.2,0-0.2-0.1-0.2-0.2c0-0.7,0-1.7,0.1-3.1s0.1-2.4,0.1-3.1c0-1.1,0-2.5-0.1-4.4c-1.6,0.1-2.7,0.1-3.4,0.1c-0.1,0-0.1,0-0.1-0.1
		c0-0.1,0-0.3,0.1-0.5C413-45.8,413-46,413-46c0-0.2,0.1-0.5,0.1-0.9c0-0.1,0.1-0.1,0.2-0.1l0.1,0c2.1,0.1,3.5,0.2,4.2,0.2
		c0.6,0,1.6,0,3-0.1c0.9-0.1,1.3-0.1,1.2-0.1c0.2,0,0.2,0.1,0.3,0.2c0-0.1,0,0.2,0,0.9c0,0.1,0,0.2,0,0.4
		C422-45.5,422.1-45.4,422.1-45.3z"/>
	<path class="st0" d="M431.5-42.5c0,0.4,0,1.1-0.1,2c0,0.9-0.1,1.6-0.1,2c0,0.4,0,1.1,0,2s0,1.5,0,2c0,0.1-0.1,0.2-0.2,0.2
		c0,0-0.7,0-1.8,0c-0.1,0-0.1-0.2-0.1-0.7c0-0.5,0-0.7-0.1-0.7c0,0-0.1,0-0.1,0.1c-1,0.9-2,1.3-3,1.3c-1.3,0-2.2-0.5-2.6-1.4
		c-0.3-0.6-0.4-1.7-0.4-3.2c0-1.4,0.1-2.6,0.3-3.6c0.1-0.2,0.2-0.4,0.3-0.4c0.2,0,0.4,0,0.8,0s0.6,0,0.8,0c0.1,0,0.2,0.1,0.2,0.2
		c0,0.2,0,0.6-0.1,1.2c-0.1,0.6-0.1,1-0.1,1.2c0,0.4,0,0.8,0,1.2c0,1.1,0.1,1.8,0.2,2.1c0.3,0.7,0.8,1,1.7,1c0.4,0,0.8-0.2,1.3-0.6
		c0.5-0.4,0.8-0.8,0.9-1.1c0-0.5,0-2,0-4.8c0-0.3,0.1-0.4,0.4-0.4h1.5C431.4-42.8,431.5-42.7,431.5-42.5z"/>
	<path class="st0" d="M438.4-36c0,0.1,0,0.3,0,0.5c0,0.3,0,0.5-0.1,0.6c0,0.1,0,0.2,0,0.2c0,0-0.1,0.1-0.2,0.1
		c-0.5,0.2-1.3,0.4-2.3,0.4c-1.4,0-2.1-0.6-2.1-1.9c0-0.5,0-1.3,0-2.3s0-1.8,0-2.3c0-0.2-0.1-0.4-0.4-0.4c-0.2,0-0.4,0-0.7,0
		c-0.1,0-0.2-0.3-0.2-0.7c0-0.2,0-0.4,0-0.6c0-0.1,0.1-0.2,0.3-0.3c0.2,0,0.3,0,0.4,0c0.3,0,0.4-0.1,0.4-0.4c0-0.2,0-0.6,0-1.1
		c0-0.5,0-0.9,0-1.1c0-0.4,0.1-0.7,0.3-0.7c0.1,0,0.6,0.1,1.7,0.3c0.1,0,0.2,0.1,0.2,0.2c0,0.3,0,0.7-0.1,1.2s-0.1,0.9-0.1,1.2
		c0,0.2,0.1,0.3,0.2,0.3h2.2c0.1,0,0.2,0,0.2,0.1c0,0.1,0,0.2,0,0.3c0,0.2,0,0.3,0,0.4c0,0.1,0,0.2,0,0.4c0,0.2,0,0.3,0,0.4
		c0,0.1-0.1,0.2-0.3,0.2c-0.2,0-0.6,0-1.1,0c-0.5,0-0.9,0-1.1,0c0,0-0.1,0.2-0.1,0.5c0,0.4,0,1,0,1.8v1.3c0,0.5,0,0.9,0.1,1.1
		c0.1,0.3,0.4,0.5,0.9,0.5c0.2,0,0.5,0,0.8-0.1c0.4-0.1,0.6-0.1,0.8-0.1C438.4-36.1,438.4-36.1,438.4-36z"/>
	<path class="st0" d="M447.9-38.7c0,1.3-0.4,2.3-1.2,3.2c-0.8,0.9-1.9,1.4-3.1,1.4c-1.3,0-2.3-0.5-3.1-1.4c-0.8-0.9-1.2-2-1.2-3.2
		s0.4-2.3,1.2-3.2c0.9-0.9,1.9-1.4,3.1-1.4c1.2,0,2.3,0.5,3.1,1.4C447.5-41,447.9-40,447.9-38.7z M446-38.7c0-0.7-0.2-1.4-0.7-1.9
		c-0.5-0.5-1.1-0.8-1.8-0.8c-0.7,0-1.3,0.3-1.8,0.8c-0.5,0.5-0.7,1.2-0.7,1.9c0,0.7,0.2,1.4,0.7,1.9c0.5,0.6,1.1,0.8,1.8,0.8
		c0.7,0,1.3-0.3,1.8-0.8C445.8-37.3,446-38,446-38.7z"/>
	<path class="st0" d="M454.3-42.8c0,0.7,0,1.3-0.1,1.8c0,0.1-0.1,0.2-0.2,0.2c-0.1,0-0.3,0-0.6,0c-0.3,0-0.5,0-0.6,0
		c-0.8,0-1.2,0.2-1.5,0.6c-0.1,0.3-0.2,0.8-0.2,1.6v1c0,0.3,0,0.9,0,1.5c0,0.7,0,1.2,0,1.5c0,0.2-0.1,0.2-0.2,0.2
		c-0.2,0-0.5,0-0.9,0c-0.4,0-0.7,0-0.9,0c-0.1,0-0.2-0.1-0.2-0.2c0-0.5,0-1.2,0-2.2c0-1,0-1.7,0-2.2c0-1.5-0.1-2.7-0.4-3.6
		c0,0,0-0.1,0-0.1c0-0.1,0-0.1,0.1-0.2c0.2,0,0.5-0.1,0.9-0.1c0.7-0.1,1-0.2,0.9-0.2c0.1,0,0.2,0.2,0.2,0.5s0.1,0.5,0.2,0.5
		c0,0,0,0,0,0c0.2-0.2,0.5-0.3,0.7-0.5c0.3-0.2,0.5-0.3,0.8-0.4c0.2-0.1,0.5-0.1,0.9-0.1C454.1-43,454.3-42.9,454.3-42.8z"/>
</g>
<g>
	<g>
		<g>
			
				<radialGradient id="SVGID_1_" cx="224.651" cy="297.9752" r="18.3734" gradientTransform="matrix(1 0 0 -1 0 368.2353)" gradientUnits="userSpaceOnUse">
				<stop  offset="0" style="stop-color:#FAAF40"/>
				<stop  offset="1" style="stop-color:#F16522"/>
			</radialGradient>
			<path class="st3" d="M240.8,87.8c2.2,0.9,3.5-3,2.6-5.2c0,0,0-0.1,0-0.1c-0.8-1.9-2.8-2-4.9-2.1c-16.6-0.5-20.5-4.1-12-20.7
				c0.9-1.8,1.9-3.6,0.6-5.3c0,0,0-0.1-0.1-0.1c-1.4-1.9-5.3-2.6-5.8-0.3C217.8,68.8,203,80.2,206,85.4
				C208.7,90.1,222.6,80.6,240.8,87.8z M226.8,73.2c1.9,3.2,11.3,3.8,14,0c4.1-5.9,0.3-12.6-6.9-12
				C229.3,61.7,225.2,70.3,226.8,73.2z"/>
		</g>
		<g>
			
				<radialGradient id="SVGID_00000108303691748411628350000009695197139036478614_" cx="169.7103" cy="298.6511" r="18.3568" gradientTransform="matrix(1 0 0 -1 0 368.2353)" gradientUnits="userSpaceOnUse">
				<stop  offset="0" style="stop-color:#8BC53F"/>
				<stop  offset="1" style="stop-color:#009F47"/>
			</radialGradient>
			<path style="fill:url(#SVGID_00000108303691748411628350000009695197139036478614_);" d="M173.1,53.4c-0.3-2.3-4.4-1.5-5.8,0.3
				c0,0,0,0.1-0.1,0.1c-1.2,1.6-0.3,3.5,0.6,5.3c7.8,14.6,6.7,19.8-12,20.7c-2.1,0.1-4.1,0.2-4.9,2.1c0,0,0,0.1,0,0.1
				c-0.9,2.2,0.4,5.9,2.6,5.2c14.5-4.4,31.8,2.8,34.8-2.5C191.1,80,176,72.7,173.1,53.4z M167.5,72.8c1.9-3.2-2.3-11.7-7-12.1
				c-7.2-0.6-11,6-6.9,12C156.2,76.4,165.8,75.7,167.5,72.8z"/>
		</g>
		<g>
			
				<radialGradient id="SVGID_00000009588505053724424540000009517428370669118087_" cx="197.4131" cy="308.8324" r="20.3322" gradientTransform="matrix(1 0 0 -1 0 368.2353)" gradientUnits="userSpaceOnUse">
				<stop  offset="0" style="stop-color:#26A9E0"/>
				<stop  offset="1" style="stop-color:#0060AE"/>
			</radialGradient>
			<path style="fill:url(#SVGID_00000009588505053724424540000009517428370669118087_);" d="M216.9,51c1.8-1.5-0.9-4.6-3.2-4.9
				c0,0-0.1,0-0.1,0c-2-0.3-3.2,1.4-4.3,3.2c-8.8,14.1-13.9,15.7-23.9,0c-1.1-1.7-2.2-3.4-4.3-3.2c0,0-0.1,0-0.1,0
				c-2.3,0.3-4.9,3.3-3.2,4.9C189,61.5,191.4,80,197.4,80C202.8,80,201.6,63.2,216.9,51z M197.3,55.8c3.8,0,9-7.9,7-12.1
				c-3.1-6.5-10.7-6.5-13.8,0C188.5,48,193.9,55.8,197.3,55.8z"/>
		</g>
	</g>
	<g>
		<g>
			
				<radialGradient id="SVGID_00000002344951466448473270000008387745874099896208_" cx="220.6789" cy="290.6917" r="75.5508" gradientTransform="matrix(1 0 0 -1 0 368.2353)" gradientUnits="userSpaceOnUse">
				<stop  offset="0" style="stop-color:#FAAF40"/>
				<stop  offset="1" style="stop-color:#F05A28"/>
			</radialGradient>
			<path style="fill:url(#SVGID_00000002344951466448473270000008387745874099896208_);" d="M239.3,73.3c0.3-0.2,0.5-0.4,0.6-0.7
				c1.6-2.3,1.9-5,0.9-7c-1.1-2-3.3-3.2-5.9-3.2c-0.3,0-0.5,0-0.8,0c-1.7,0.1-3.8,2-5.2,4.7c-0.3,0.6-0.6,1.3-0.8,1.8
				C232,69.9,235.8,71.4,239.3,73.3z"/>
			
				<radialGradient id="SVGID_00000116956525699810978790000000181470935577228164_" cx="220.6788" cy="290.6918" r="75.5505" gradientTransform="matrix(1 0 0 -1 0 368.2353)" gradientUnits="userSpaceOnUse">
				<stop  offset="0" style="stop-color:#FAAF40"/>
				<stop  offset="1" style="stop-color:#F05A28"/>
			</radialGradient>
			<path style="fill:url(#SVGID_00000116956525699810978790000000181470935577228164_);" d="M216.6,67.5c1.8,0,3.6,0.1,5.3,0.3
				c0.7-2.4,1.9-5.2,3.7-8.6c1-1.9,1.5-3.1,0.7-4.2c-0.6-0.7-1.8-1.3-2.8-1.3c-0.9,0-1,0.4-1.1,0.6c-1.1,4.8-3.4,9.2-5.9,13.2
				C216.5,67.5,216.5,67.5,216.6,67.5z"/>
		</g>
		<g>
			
				<radialGradient id="SVGID_00000120524494902806443860000011028843149734223034_" cx="213.8466" cy="278.7644" r="112.6156" gradientTransform="matrix(1 0 0 -1 0 368.2353)" gradientUnits="userSpaceOnUse">
				<stop  offset="0" style="stop-color:#8BC53F"/>
				<stop  offset="1" style="stop-color:#009F47"/>
			</radialGradient>
			<path style="fill:url(#SVGID_00000120524494902806443860000011028843149734223034_);" d="M160.5,74.1
				C160.5,74.1,160.5,74.1,160.5,74.1c3.1,0,5.5-1,6-1.9c0.7-1.1,0.3-3.5-1-5.9c-1.4-2.7-3.4-4.5-5.2-4.6c-0.3,0-0.5,0-0.8,0
				c-2.7,0-4.9,1.2-5.9,3.2c-1.1,2.1-0.8,4.7,0.8,7C155.4,73.3,157.7,74.1,160.5,74.1z"/>
			
				<radialGradient id="SVGID_00000051347070509102777290000013323360148582215558_" cx="213.8465" cy="278.7644" r="112.6153" gradientTransform="matrix(1 0 0 -1 0 368.2353)" gradientUnits="userSpaceOnUse">
				<stop  offset="0" style="stop-color:#8BC53F"/>
				<stop  offset="1" style="stop-color:#009F47"/>
			</radialGradient>
			<path style="fill:url(#SVGID_00000051347070509102777290000013323360148582215558_);" d="M179.1,85.5c1.8-2.3,3.9-4.3,6.1-6.2
				c-0.4-0.5-0.9-1.1-1.4-1.7c-4-4.9-10.1-12.4-11.8-24c0-0.1-0.1-0.5-0.9-0.5c-1,0-2.3,0.6-3,1.4c-0.7,1-0.4,2.1,0.7,4.1
				c3.9,7.3,6,12.9,3.8,16.8c-1.9,3.4-6.9,5.1-16.7,5.5c-2.3,0.1-3.4,0.3-4,1.5c-0.4,0.9-0.2,2.4,0.4,3.2c0.2,0.2,0.4,0.5,0.7,0.5
				c0.1,0,0.1,0,0.2,0c3.5-1,7.4-1.6,11.9-1.6c3.7,0,7.2,0.3,10.4,0.6C176.9,85.3,178,85.4,179.1,85.5z"/>
		</g>
		<g>
			
				<radialGradient id="SVGID_00000083788013445089502270000016035539644679902080_" cx="213.8464" cy="278.7647" r="112.6145" gradientTransform="matrix(1 0 0 -1 0 368.2353)" gradientUnits="userSpaceOnUse">
				<stop  offset="0" style="stop-color:#26A9E0"/>
				<stop  offset="1" style="stop-color:#0060AE"/>
			</radialGradient>
			<path style="fill:url(#SVGID_00000083788013445089502270000016035539644679902080_);" d="M197.3,54.7c1.3,0,3.2-1.5,4.6-3.8
				c1.6-2.5,2.2-5.2,1.4-6.8c-1.3-2.7-3.5-4.3-5.9-4.3c-2.4,0-4.7,1.6-5.9,4.3c-0.7,1.6-0.2,4.3,1.5,6.8
				C194.5,53.4,196.3,54.7,197.3,54.7z"/>
			
				<radialGradient id="SVGID_00000065068399576603402390000011121388281468320935_" cx="213.8464" cy="278.7646" r="112.6138" gradientTransform="matrix(1 0 0 -1 0 368.2353)" gradientUnits="userSpaceOnUse">
				<stop  offset="0" style="stop-color:#26A9E0"/>
				<stop  offset="1" style="stop-color:#0060AE"/>
			</radialGradient>
			<path style="fill:url(#SVGID_00000065068399576603402390000011121388281468320935_);" d="M190.6,69.1c0.8,1.7,1.5,3.3,2.3,4.7
				c3-1.7,6.2-3.1,9.5-4.2c2.3-5.8,5.9-13.2,13.8-19.5c0.1-0.1,0.3-0.2,0.2-0.6c-0.3-1-1.7-2.2-2.9-2.3c-0.1,0-0.2,0-0.3,0
				c-1.2,0-1.9,1.1-2.9,2.7c-4.4,7-8.2,11.7-12.7,11.7c0,0,0,0,0,0c-3.9,0-7.8-3.5-13.1-11.7c-1.1-1.7-1.8-2.7-2.9-2.7
				c-0.1,0-0.2,0-0.4,0c-1.1,0.1-2.4,1.2-2.7,2.2c-0.1,0.5,0,0.7,0.2,0.8C184.4,55.7,187.8,63.1,190.6,69.1z"/>
		</g>
	</g>
</g>
</svg>
